<?xml version="1.0" standalone="no"?>
<!DOCTYPE svg PUBLIC "-//W3C//DTD SVG 20010904//EN"
 "http://www.w3.org/TR/2001/REC-SVG-20010904/DTD/svg10.dtd">
<svg version="1.0" xmlns="http://www.w3.org/2000/svg"
 width="527.000000pt" height="527.000000pt" viewBox="0 0 527.000000 527.000000"
 preserveAspectRatio="xMidYMid meet">
<metadata>
Created by potrace 1.14, written by Peter Selinger 2001-2017
</metadata>
<g transform="translate(0.000000,527.000000) scale(0.100000,-0.100000)"
fill="#000000" stroke="none">
<path d="M1214 4756 c-5 -14 -56 -271 -68 -341 -4 -28 -39 -201 -50 -251 -2
-12 -7 -39 -10 -60 -4 -22 -16 -85 -27 -142 -11 -57 -18 -106 -15 -109 3 -3
100 -6 216 -5 l211 0 -5 -32 c-2 -17 -12 -66 -20 -109 -25 -123 -37 -112 127
-112 78 1 145 0 148 -2 4 -1 0 -33 -8 -70 -8 -38 -16 -75 -18 -84 -2 -9 -6
-32 -9 -50 -3 -19 -8 -45 -11 -59 -3 -14 -7 -36 -10 -50 -3 -14 -7 -36 -10
-50 -3 -14 -7 -36 -9 -50 -3 -14 -14 -72 -25 -130 -29 -145 -31 -152 -36 -180
-2 -14 -9 -50 -15 -80 -6 -30 -13 -66 -16 -80 -3 -14 -30 -153 -60 -310 -31
-157 -58 -296 -61 -310 -2 -13 -11 -56 -19 -95 -8 -38 -17 -86 -20 -105 -3
-19 -7 -43 -10 -52 -3 -9 -6 -25 -8 -35 -8 -45 -16 -90 -21 -113 -3 -14 -9
-50 -15 -80 -13 -69 -14 -78 -35 -175 -9 -44 -18 -89 -20 -100 -8 -55 -17
-101 -20 -106 -2 -3 -7 -28 -11 -55 -3 -27 -8 -52 -10 -55 -2 -4 -6 -24 -10
-45 -3 -22 -10 -58 -15 -82 -5 -23 -12 -59 -15 -80 -3 -20 -9 -53 -14 -72 -5
-19 -12 -51 -15 -70 -3 -19 -18 -97 -33 -173 -18 -87 -24 -141 -18 -144 16
-10 956 -7 965 3 6 7 74 339 73 359 0 2 4 24 10 47 5 24 12 54 14 68 3 14 18
93 34 175 16 83 31 161 34 175 2 14 14 72 25 130 30 151 31 152 36 185 3 17 8
37 10 45 2 8 7 31 10 50 6 36 54 280 61 315 3 11 7 31 9 45 3 23 19 106 29
155 10 49 76 383 80 405 3 14 19 97 36 185 18 88 34 169 36 180 2 11 6 31 9
45 2 14 7 36 9 50 3 14 10 50 16 80 6 30 13 66 15 80 3 14 7 36 10 50 3 14 7
36 10 50 2 14 9 50 15 80 6 30 13 66 16 80 2 14 7 36 10 50 3 14 8 36 10 50 2
14 9 45 14 70 10 44 14 66 26 143 4 20 9 38 13 38 3 1 357 2 786 3 429 1 786
5 793 10 7 4 10 11 7 15 -2 5 0 23 5 41 5 18 12 52 16 74 3 23 12 73 21 111 8
39 16 79 18 90 10 72 17 110 20 116 2 3 7 20 10 37 3 18 7 46 10 62 3 17 12
63 21 103 8 39 17 88 20 107 3 19 7 42 9 50 2 8 7 30 10 48 3 19 7 39 8 45 3
17 -3293 20 -3299 3z m3220 -71 c-4 -18 -56 -282 -67 -345 -3 -14 -22 -110
-42 -215 -21 -104 -38 -195 -38 -201 -1 -16 -337 -15 -337 1 0 11 8 57 24 130
2 11 7 40 12 65 4 25 8 47 9 50 1 3 5 25 9 50 5 25 10 54 13 65 2 11 6 31 9
45 2 14 7 36 10 50 7 32 10 45 19 98 l7 42 -1230 0 -1230 0 -7 -42 c-4 -24 -9
-50 -11 -58 -11 -52 -71 -364 -79 -415 -3 -17 -9 -44 -13 -60 l-8 -30 -183 -1
-182 -1 7 41 c4 23 8 50 10 61 2 17 17 95 70 360 2 11 8 45 14 75 11 60 17 92
25 130 2 14 7 41 10 60 3 19 8 42 10 50 4 14 178 16 1590 16 l1584 0 -5 -21z
m-460 -260 c-1 -36 -8 -75 -28 -170 -8 -38 -17 -83 -20 -100 -3 -16 -7 -41
-10 -55 -3 -14 -8 -37 -11 -52 -4 -15 -8 -39 -10 -55 -3 -15 -7 -37 -9 -48 -3
-11 -5 -23 -5 -26 -1 -3 -264 -6 -586 -6 -322 0 -587 -2 -590 -5 -3 -3 -25
-108 -50 -234 -25 -126 -47 -240 -50 -254 -3 -14 -7 -37 -10 -52 -3 -15 -14
-73 -25 -128 -11 -55 -22 -115 -25 -133 -3 -17 -12 -63 -20 -102 -28 -141
-107 -541 -112 -565 -3 -20 -40 -211 -59 -305 -2 -11 -11 -55 -20 -98 -8 -42
-17 -90 -20 -105 -3 -15 -7 -34 -9 -42 -2 -8 -7 -31 -10 -50 -3 -19 -15 -82
-26 -140 -11 -58 -23 -116 -25 -130 -3 -14 -13 -68 -24 -120 -16 -83 -70 -358
-84 -430 -2 -14 -16 -86 -31 -160 -15 -74 -29 -146 -31 -160 -19 -113 -38
-180 -53 -184 -22 -6 -378 -2 -384 4 -3 3 -1 28 4 55 5 28 12 64 15 80 2 17 7
37 9 45 2 8 7 29 10 45 2 17 7 41 10 55 3 14 7 36 10 50 2 14 13 70 24 125 11
55 22 111 25 125 2 14 16 86 31 160 35 176 32 159 55 285 12 61 27 139 35 175
8 36 17 81 20 100 3 19 13 71 22 115 9 44 17 89 19 100 2 11 5 31 8 45 5 21
14 66 42 215 2 11 7 34 11 50 9 39 8 33 17 88 4 27 9 56 11 65 2 10 13 62 24
117 18 93 23 117 36 185 2 14 23 117 46 230 22 113 42 214 44 225 6 33 14 78
20 108 3 15 7 37 9 50 3 12 10 47 16 77 6 30 13 64 15 75 2 11 6 37 10 58 l6
37 -364 0 c-200 0 -366 2 -369 5 -3 3 1 27 7 53 7 26 15 64 18 82 3 19 8 49
12 65 3 17 21 111 40 210 18 99 38 200 44 225 5 25 13 65 16 90 4 25 10 50 15
55 6 7 403 10 1162 10 l1153 0 -1 -30z m-1814 -845 c0 -8 -5 -33 -10 -55 -5
-22 -11 -51 -13 -65 -8 -40 -37 -193 -42 -220 -3 -14 -7 -36 -10 -50 -2 -14
-23 -117 -45 -230 -23 -113 -43 -214 -44 -225 -4 -24 -78 -402 -112 -575 -14
-69 -27 -136 -29 -150 -8 -49 -17 -96 -31 -158 -7 -34 -16 -77 -19 -95 -3 -17
-8 -43 -10 -57 -3 -14 -7 -36 -10 -50 -3 -14 -7 -36 -10 -50 -10 -48 -15 -75
-21 -110 -3 -19 -9 -51 -14 -70 -5 -19 -11 -51 -14 -70 -3 -19 -15 -82 -27
-140 -11 -58 -23 -114 -25 -125 -2 -11 -8 -45 -14 -75 -6 -30 -12 -64 -14 -75
-2 -11 -18 -94 -36 -185 -17 -91 -36 -181 -41 -201 l-9 -36 -182 1 c-157 1
-183 3 -181 16 1 8 25 134 53 280 28 146 67 344 85 440 19 96 36 187 39 203 3
15 7 35 10 45 3 9 7 33 10 52 3 19 17 89 30 156 14 67 28 136 31 155 3 19 13
68 21 109 9 41 17 82 19 91 2 9 6 32 9 50 6 35 12 65 21 109 3 14 7 34 9 45 2
11 18 92 35 180 18 88 34 171 36 185 3 14 7 36 10 50 3 14 12 63 21 110 22
117 22 116 39 200 8 41 17 86 19 100 2 14 14 72 26 130 24 121 24 121 51 259
10 57 21 106 23 110 3 4 86 7 185 7 156 0 181 -3 181 -16z"/>
<path d="M3089 3653 c-1 -5 -3 -17 -5 -28 -2 -11 -8 -42 -14 -70 -10 -48 -13
-65 -25 -130 -4 -16 -12 -61 -20 -100 -8 -38 -16 -81 -19 -95 -2 -14 -11 -59
-19 -100 -9 -41 -18 -88 -21 -105 -3 -16 -17 -88 -31 -160 -14 -71 -28 -141
-31 -155 -3 -14 -12 -61 -20 -105 -9 -44 -18 -93 -20 -109 -2 -16 -8 -45 -14
-65 -5 -20 -12 -52 -15 -71 -3 -19 -17 -91 -30 -160 -14 -69 -27 -136 -30
-150 -3 -14 -7 -36 -10 -50 -2 -14 -7 -38 -10 -55 -3 -16 -7 -39 -9 -50 -2
-11 -18 -92 -36 -180 -37 -188 -38 -192 -45 -225 -8 -37 -15 -73 -30 -165 -2
-11 -6 -29 -8 -40 -3 -11 -30 -148 -61 -305 -30 -157 -58 -297 -61 -312 -3
-16 -7 -40 -10 -55 -3 -16 -8 -36 -11 -46 -3 -10 -8 -33 -10 -52 -6 -53 -43
-236 -50 -246 -3 -5 -203 -9 -460 -9 -425 0 -454 -1 -455 -17 0 -10 -2 -25 -4
-33 -2 -13 56 -15 480 -15 266 0 487 3 490 7 7 6 14 36 31 128 3 14 23 117 45
230 22 113 43 216 45 230 17 91 139 713 155 795 12 55 23 111 25 125 6 33 109
563 140 718 13 68 26 136 29 150 5 26 10 52 19 98 2 11 16 81 31 155 15 74 28
141 30 150 2 9 6 32 9 50 3 19 8 45 11 59 3 14 9 50 15 80 6 30 13 66 16 80 3
14 7 36 10 50 3 14 17 86 32 160 l27 135 368 0 c202 0 367 0 367 0 0 0 4 15 9
33 l10 32 -405 0 c-222 0 -405 -3 -405 -7z"/>
</g>
</svg>
